<svg width="13" height="13" viewBox="0 0 13 13" fill="none" xmlns="http://www.w3.org/2000/svg">
<path d="M6.5 7.71875C7.1731 7.71875 7.71875 7.1731 7.71875 6.5C7.71875 5.8269 7.1731 5.28125 6.5 5.28125C5.8269 5.28125 5.28125 5.8269 5.28125 6.5C5.28125 7.1731 5.8269 7.71875 6.5 7.71875Z" fill="#1395BA"/>
<path d="M2.4375 7.71875C3.1106 7.71875 3.65625 7.1731 3.65625 6.5C3.65625 5.8269 3.1106 5.28125 2.4375 5.28125C1.7644 5.28125 1.21875 5.8269 1.21875 6.5C1.21875 7.1731 1.7644 7.71875 2.4375 7.71875Z" fill="#1395BA"/>
<path d="M10.5625 7.71875C11.2356 7.71875 11.7812 7.1731 11.7812 6.5C11.7812 5.8269 11.2356 5.28125 10.5625 5.28125C9.8894 5.28125 9.34375 5.8269 9.34375 6.5C9.34375 7.1731 9.8894 7.71875 10.5625 7.71875Z" fill="#1395BA"/>
</svg>
