<svg width="24" height="24" viewBox="0 0 24 24" fill="none" xmlns="http://www.w3.org/2000/svg">
<path d="M7 10.75C6.30964 10.75 5.75 11.3096 5.75 12C5.75 12.6904 6.30964 13.25 7 13.25V10.75ZM12 13.25C12.6904 13.25 13.25 12.6904 13.25 12C13.25 11.3096 12.6904 10.75 12 10.75V13.25ZM12 10.75C11.3096 10.75 10.75 11.3096 10.75 12C10.75 12.6904 11.3096 13.25 12 13.25V10.75ZM17 13.25C17.6904 13.25 18.25 12.6904 18.25 12C18.25 11.3096 17.6904 10.75 17 10.75V13.25ZM13.25 12C13.25 11.3096 12.6904 10.75 12 10.75C11.3096 10.75 10.75 11.3096 10.75 12H13.25ZM10.75 17C10.75 17.6904 11.3096 18.25 12 18.25C12.6904 18.25 13.25 17.6904 13.25 17H10.75ZM10.75 12C10.75 12.6904 11.3096 13.25 12 13.25C12.6904 13.25 13.25 12.6904 13.25 12H10.75ZM13.25 7C13.25 6.30964 12.6904 5.75 12 5.75C11.3096 5.75 10.75 6.30964 10.75 7H13.25ZM7 13.25H12V10.75H7V13.25ZM12 13.25H17V10.75H12V13.25ZM12 12H10.75C10.75 12 10.75 12 10.75 12C10.75 12 10.75 12 10.75 12C10.75 12 10.75 12 10.75 12C10.75 12 10.75 12 10.75 12C10.75 12 10.75 12 10.75 12C10.75 12 10.75 12 10.75 12C10.75 12 10.75 12 10.75 12C10.75 12 10.75 12 10.75 12C10.75 12 10.75 12 10.75 12C10.75 12 10.75 12 10.75 12C10.75 12.0001 10.75 12.0001 10.75 12.0001C10.75 12.0001 10.75 12.0001 10.75 12.0001C10.75 12.0001 10.75 12.0001 10.75 12.0001C10.75 12.0001 10.75 12.0001 10.75 12.0001C10.75 12.0001 10.75 12.0001 10.75 12.0002C10.75 12.0002 10.75 12.0002 10.75 12.0002C10.75 12.0002 10.75 12.0002 10.75 12.0002C10.75 12.0002 10.75 12.0002 10.75 12.0003C10.75 12.0003 10.75 12.0003 10.75 12.0003C10.75 12.0003 10.75 12.0003 10.75 12.0003C10.75 12.0004 10.75 12.0004 10.75 12.0004C10.75 12.0004 10.75 12.0004 10.75 12.0005C10.75 12.0005 10.75 12.0005 10.75 12.0005C10.75 12.0005 10.75 12.0006 10.75 12.0006C10.75 12.0006 10.75 12.0006 10.75 12.0007C10.75 12.0007 10.75 12.0007 10.75 12.0007C10.75 12.0008 10.75 12.0008 10.75 12.0008C10.75 12.0008 10.75 12.0009 10.75 12.0009C10.75 12.0009 10.75 12.001 10.75 12.001C10.75 12.001 10.75 12.0011 10.75 12.0011C10.75 12.0011 10.75 12.0012 10.75 12.0012C10.75 12.0013 10.75 12.0013 10.75 12.0013C10.75 12.0014 10.75 12.0014 10.75 12.0015C10.75 12.0015 10.75 12.0016 10.75 12.0016C10.75 12.0016 10.75 12.0017 10.75 12.0017C10.75 12.0018 10.75 12.0018 10.75 12.0019C10.75 12.0019 10.75 12.002 10.75 12.002C10.75 12.0021 10.75 12.0022 10.75 12.0022C10.75 12.0023 10.75 12.0023 10.75 12.0024C10.75 12.0024 10.75 12.0025 10.75 12.0026C10.75 12.0026 10.75 12.0027 10.75 12.0028C10.75 12.0028 10.75 12.0029 10.75 12.003C10.75 12.003 10.75 12.0031 10.75 12.0032C10.75 12.0032 10.75 12.0033 10.75 12.0034C10.75 12.0035 10.75 12.0035 10.75 12.0036C10.75 12.0037 10.75 12.0038 10.75 12.0039C10.75 12.004 10.75 12.004 10.75 12.0041C10.75 12.0042 10.75 12.0043 10.75 12.0044C10.75 12.0045 10.75 12.0046 10.75 12.0047C10.75 12.0047 10.75 12.0048 10.75 12.0049C10.75 12.005 10.75 12.0051 10.75 12.0052C10.75 12.0053 10.75 12.0054 10.75 12.0055C10.75 12.0057 10.75 12.0058 10.75 12.0059C10.75 12.006 10.75 12.0061 10.75 12.0062C10.75 12.0063 10.75 12.0064 10.75 12.0065C10.75 12.0067 10.75 12.0068 10.75 12.0069C10.75 12.007 10.75 12.0071 10.75 12.0073C10.75 12.0074 10.75 12.0075 10.75 12.0077C10.75 12.0078 10.75 12.0079 10.75 12.008C10.75 12.0082 10.75 12.0083 10.75 12.0085C10.75 12.0086 10.75 12.0087 10.75 12.0089C10.75 12.009 10.75 12.0092 10.75 12.0093C10.75 12.0095 10.75 12.0096 10.75 12.0098C10.75 12.0099 10.75 12.0101 10.75 12.0102C10.75 12.0104 10.75 12.0105 10.75 12.0107C10.75 12.0109 10.75 12.011 10.75 12.0112C10.75 12.0114 10.75 12.0115 10.75 12.0117C10.75 12.0119 10.75 12.0121 10.75 12.0122C10.75 12.0124 10.75 12.0126 10.75 12.0128C10.75 12.013 10.75 12.0131 10.75 12.0133C10.75 12.0135 10.75 12.0137 10.75 12.0139C10.75 12.0141 10.75 12.0143 10.75 12.0145C10.75 12.0147 10.75 12.0149 10.75 12.0151C10.75 12.0153 10.75 12.0155 10.75 12.0157C10.75 12.0159 10.75 12.0161 10.75 12.0164C10.75 12.0166 10.75 12.0168 10.75 12.017C10.75 12.0172 10.75 12.0175 10.75 12.0177C10.75 12.0179 10.75 12.0181 10.75 12.0184C10.75 12.0186 10.75 12.0188 10.75 12.0191C10.75 12.0193 10.75 12.0196 10.75 12.0198C10.75 12.02 10.75 12.0203 10.75 12.0205C10.75 12.0208 10.75 12.021 10.75 12.0213C10.75 12.0216 10.75 12.0218 10.75 12.0221C10.75 12.0223 10.75 12.0226 10.75 12.0229C10.75 12.0231 10.75 12.0234 10.75 12.0237C10.75 12.024 10.75 12.0242 10.75 12.0245C10.75 12.0248 10.75 12.0251 10.75 12.0254C10.75 12.0257 10.75 12.026 10.75 12.0263C10.75 12.0266 10.75 12.0269 10.75 12.0272C10.75 12.0275 10.75 12.0278 10.75 12.0281C10.75 12.0284 10.75 12.0287 10.75 12.029C10.75 12.0293 10.75 12.0296 10.75 12.03C10.75 12.0303 10.75 12.0306 10.75 12.0309C10.75 12.0313 10.75 12.0316 10.75 12.0319C10.75 12.0323 10.75 12.0326 10.75 12.033C10.75 12.0333 10.75 12.0336 10.75 12.034C10.75 12.0344 10.75 12.0347 10.75 12.0351C10.75 12.0354 10.75 12.0358 10.75 12.0361C10.75 12.0365 10.75 12.0369 10.75 12.0373C10.75 12.0376 10.75 12.038 10.75 12.0384C10.75 12.0388 10.75 12.0391 10.75 12.0395C10.75 12.0399 10.75 12.0403 10.75 12.0407C10.75 12.0411 10.75 12.0415 10.75 12.0419C10.75 12.0423 10.75 12.0427 10.75 12.0431C10.75 12.0435 10.75 12.044 10.75 12.0444C10.75 12.0448 10.75 12.0452 10.75 12.0456C10.75 12.0461 10.75 12.0465 10.75 12.0469C10.75 12.0474 10.75 12.0478 10.75 12.0482C10.75 12.0487 10.75 12.0491 10.75 12.0496C10.75 12.05 10.75 12.0505 10.75 12.0509C10.75 12.0514 10.75 12.0519 10.75 12.0523C10.75 12.0528 10.75 12.0533 10.75 12.0538C10.75 12.0542 10.75 12.0547 10.75 12.0552C10.75 12.0557 10.75 12.0562 10.75 12.0567C10.75 12.0571 10.75 12.0576 10.75 12.0581C10.75 12.0586 10.75 12.0592 10.75 12.0597C10.75 12.0602 10.75 12.0607 10.75 12.0612C10.75 12.0617 10.75 12.0622 10.75 12.0628C10.75 12.0633 10.75 12.0638 10.75 12.0644C10.75 12.0649 10.75 12.0655 10.75 12.066C10.75 12.0665 10.75 12.0671 10.75 12.0676C10.75 12.0682 10.75 12.0688 10.75 12.0693C10.75 12.0699 10.75 12.0705 10.75 12.071C10.75 12.0716 10.75 12.0722 10.75 12.0728C10.75 12.0733 10.75 12.0739 10.75 12.0745C10.75 12.0751 10.75 12.0757 10.75 12.0763C10.75 12.0769 10.75 12.0775 10.75 12.0781C10.75 12.0787 10.75 12.0794 10.75 12.08C10.75 12.0806 10.75 12.0812 10.75 12.0818C10.75 12.0825 10.75 12.0831 10.75 12.0837C10.75 12.0844 10.75 12.085 10.75 12.0857C10.75 12.0863 10.75 12.087 10.75 12.0876C10.75 12.0883 10.75 12.089 10.75 12.0896C10.75 12.0903 10.75 12.091 10.75 12.0917C10.75 12.0923 10.75 12.093 10.75 12.0937C10.75 12.0944 10.75 12.0951 10.75 12.0958C10.75 12.0965 10.75 12.0972 10.75 12.0979C10.75 12.0986 10.75 12.0993 10.75 12.1C10.75 12.1008 10.75 12.1015 10.75 12.1022C10.75 12.103 10.75 12.1037 10.75 12.1044C10.75 12.1052 10.75 12.1059 10.75 12.1067C10.75 12.1074 10.75 12.1082 10.75 12.1089C10.75 12.1097 10.75 12.1105 10.75 12.1112C10.75 12.112 10.75 12.1128 10.75 12.1136C10.75 12.1144 10.75 12.1151 10.75 12.1159C10.75 12.1167 10.75 12.1175 10.75 12.1183C10.75 12.1191 10.75 12.12 10.75 12.1208C10.75 12.1216 10.75 12.1224 10.75 12.1232C10.75 12.1241 10.75 12.1249 10.75 12.1257C10.75 12.1266 10.75 12.1274 10.75 12.1283C10.75 12.1291 10.75 12.13 10.75 12.1308C10.75 12.1317 10.75 12.1326 10.75 12.1334C10.75 12.1343 10.75 12.1352 10.75 12.1361C10.75 12.1369 10.75 12.1378 10.75 12.1387C10.75 12.1396 10.75 12.1405 10.75 12.1414C10.75 12.1423 10.75 12.1432 10.75 12.1442C10.75 12.1451 10.75 12.146 10.75 12.1469C10.75 12.1479 10.75 12.1488 10.75 12.1497C10.75 12.1507 10.75 12.1516 10.75 12.1526C10.75 12.1535 10.75 12.1545 10.75 12.1555C10.75 12.1564 10.75 12.1574 10.75 12.1584C10.75 12.1594 10.75 12.1603 10.75 12.1613C10.75 12.1623 10.75 12.1633 10.75 12.1643C10.75 12.1653 10.75 12.1663 10.75 12.1673C10.75 12.1684 10.75 12.1694 10.75 12.1704C10.75 12.1714 10.75 12.1725 10.75 12.1735C10.75 12.1745 10.75 12.1756 10.75 12.1766C10.75 12.1777 10.75 12.1787 10.75 12.1798C10.75 12.1809 10.75 12.1819 10.75 12.183C10.75 12.1841 10.75 12.1852 10.75 12.1863C10.75 12.1874 10.75 12.1885 10.75 12.1896C10.75 12.1907 10.75 12.1918 10.75 12.1929C10.75 12.194 10.75 12.1951 10.75 12.1962C10.75 12.1974 10.75 12.1985 10.75 12.1997C10.75 12.2008 10.75 12.2019 10.75 12.2031C10.75 12.2042 10.75 12.2054 10.75 12.2066C10.75 12.2077 10.75 12.2089 10.75 12.2101C10.75 12.2113 10.75 12.2125 10.75 12.2137C10.75 12.2149 10.75 12.2161 10.75 12.2173C10.75 12.2185 10.75 12.2197 10.75 12.2209C10.75 12.2221 10.75 12.2233 10.75 12.2246C10.75 12.2258 10.75 12.2271 10.75 12.2283C10.75 12.2296 10.75 12.2308 10.75 12.2321C10.75 12.2333 10.75 12.2346 10.75 12.2359C10.75 12.2371 10.75 12.2384 10.75 12.2397C10.75 12.241 10.75 12.2423 10.75 12.2436C10.75 12.2449 10.75 12.2462 10.75 12.2475C10.75 12.2488 10.75 12.2502 10.75 12.2515C10.75 12.2528 10.75 12.2542 10.75 12.2555C10.75 12.2569 10.75 12.2582 10.75 12.2596C10.75 12.2609 10.75 12.2623 10.75 12.2637C10.75 12.265 10.75 12.2664 10.75 12.2678C10.75 12.2692 10.75 12.2706 10.75 12.272C10.75 12.2734 10.75 12.2748 10.75 12.2762C10.75 12.2776 10.75 12.2791 10.75 12.2805C10.75 12.2819 10.75 12.2834 10.75 12.2848C10.75 12.2863 10.75 12.2877 10.75 12.2892C10.75 12.2906 10.75 12.2921 10.75 12.2936C10.75 12.2951 10.75 12.2965 10.75 12.298C10.75 12.2995 10.75 12.301 10.75 12.3025C10.75 12.304 10.75 12.3055 10.75 12.3071C10.75 12.3086 10.75 12.3101 10.75 12.3116C10.75 12.3132 10.75 12.3147 10.75 12.3163C10.75 12.3178 10.75 12.3194 10.75 12.3209C10.75 12.3225 10.75 12.3241 10.75 12.3257C10.75 12.3272 10.75 12.3288 10.75 12.3304C10.75 12.332 10.75 12.3336 10.75 12.3352C10.75 12.3368 10.75 12.3385 10.75 12.3401C10.75 12.3417 10.75 12.3434 10.75 12.345C10.75 12.3466 10.75 12.3483 10.75 12.35C10.75 12.3516 10.75 12.3533 10.75 12.355C10.75 12.3566 10.75 12.3583 10.75 12.36C10.75 12.3617 10.75 12.3634 10.75 12.3651C10.75 12.3668 10.75 12.3685 10.75 12.3702C10.75 12.372 10.75 12.3737 10.75 12.3754C10.75 12.3772 10.75 12.3789 10.75 12.3807C10.75 12.3824 10.75 12.3842 10.75 12.3859C10.75 12.3877 10.75 12.3895 10.75 12.3913C10.75 12.3931 10.75 12.3949 10.75 12.3967C10.75 12.3985 10.75 12.4003 10.75 12.4021C10.75 12.4039 10.75 12.4057 10.75 12.4076C10.75 12.4094 10.75 12.4113 10.75 12.4131C10.75 12.415 10.75 12.4168 10.75 12.4187C10.75 12.4206 10.75 12.4224 10.75 12.4243C10.75 12.4262 10.75 12.4281 10.75 12.43C10.75 12.4319 10.75 12.4338 10.75 12.4358C10.75 12.4377 10.75 12.4396 10.75 12.4415C10.75 12.4435 10.75 12.4454 10.75 12.4474C10.75 12.4493 10.75 12.4513 10.75 12.4533C10.75 12.4552 10.75 12.4572 10.75 12.4592C10.75 12.4612 10.75 12.4632 10.75 12.4652C10.75 12.4672 10.75 12.4692 10.75 12.4712C10.75 12.4732 10.75 12.4753 10.75 12.4773C10.75 12.4794 10.75 12.4814 10.75 12.4835C10.75 12.4855 10.75 12.4876 10.75 12.4897C10.75 12.4917 10.75 12.4938 10.75 12.4959C10.75 12.498 10.75 12.5001 10.75 12.5022C10.75 12.5043 10.75 12.5064 10.75 12.5086C10.75 12.5107 10.75 12.5128 10.75 12.515C10.75 12.5171 10.75 12.5193 10.75 12.5214C10.75 12.5236 10.75 12.5258 10.75 12.528C10.75 12.5301 10.75 12.5323 10.75 12.5345C10.75 12.5367 10.75 12.5389 10.75 12.5412C10.75 12.5434 10.75 12.5456 10.75 12.5478C10.75 12.5501 10.75 12.5523 10.75 12.5546C10.75 12.5568 10.75 12.5591 10.75 12.5614C10.75 12.5636 10.75 12.5659 10.75 12.5682C10.75 12.5705 10.75 12.5728 10.75 12.5751C10.75 12.5774 10.75 12.5797 10.75 12.5821C10.75 12.5844 10.75 12.5867 10.75 12.5891C10.75 12.5914 10.75 12.5938 10.75 12.5962C10.75 12.5985 10.75 12.6009 10.75 12.6033C10.75 12.6057 10.75 12.6081 10.75 12.6105C10.75 12.6129 10.75 12.6153 10.75 12.6177C10.75 12.6201 10.75 12.6226 10.75 12.625C10.75 12.6274 10.75 12.6299 10.75 12.6324C10.75 12.6348 10.75 12.6373 10.75 12.6398C10.75 12.6422 10.75 12.6447 10.75 12.6472C10.75 12.6497 10.75 12.6522 10.75 12.6548C10.75 12.6573 10.75 12.6598 10.75 12.6623C10.75 12.6649 10.75 12.6674 10.75 12.67C10.75 12.6725 10.75 12.6751 10.75 12.6777C10.75 12.6803 10.75 12.6828 10.75 12.6854C10.75 12.688 10.75 12.6906 10.75 12.6933C10.75 12.6959 10.75 12.6985 10.75 12.7011C10.75 12.7038 10.75 12.7064 10.75 12.7091C10.75 12.7117 10.75 12.7144 10.75 12.7171C10.75 12.7198 10.75 12.7224 10.75 12.7251C10.75 12.7278 10.75 12.7305 10.75 12.7332C10.75 12.736 10.75 12.7387 10.75 12.7414C10.75 12.7442 10.75 12.7469 10.75 12.7497C10.75 12.7524 10.75 12.7552 10.75 12.758C10.75 12.7607 10.75 12.7635 10.75 12.7663C10.75 12.7691 10.75 12.7719 10.75 12.7747C10.75 12.7776 10.75 12.7804 10.75 12.7832C10.75 12.7861 10.75 12.7889 10.75 12.7918C10.75 12.7946 10.75 12.7975 10.75 12.8004C10.75 12.8033 10.75 12.8061 10.75 12.809C10.75 12.8119 10.75 12.8149 10.75 12.8178C10.75 12.8207 10.75 12.8236 10.75 12.8266C10.75 12.8295 10.75 12.8325 10.75 12.8354C10.75 12.8384 10.75 12.8414 10.75 12.8443C10.75 12.8473 10.75 12.8503 10.75 12.8533C10.75 12.8563 10.75 12.8593 10.75 12.8624C10.75 12.8654 10.75 12.8684 10.75 12.8715C10.75 12.8745 10.75 12.8776 10.75 12.8807C10.75 12.8837 10.75 12.8868 10.75 12.8899C10.75 12.893 10.75 12.8961 10.75 12.8992C10.75 12.9023 10.75 12.9054 10.75 12.9086C10.75 12.9117 10.75 12.9148 10.75 12.918C10.75 12.9211 10.75 12.9243 10.75 12.9275C10.75 12.9307 10.75 12.9339 10.75 12.9371C10.75 12.9402 10.75 12.9435 10.75 12.9467C10.75 12.9499 10.75 12.9531 10.75 12.9564C10.75 12.9596 10.75 12.9629 10.75 12.9661C10.75 12.9694 10.75 12.9727 10.75 12.976C10.75 12.9792 10.75 12.9825 10.75 12.9858C10.75 12.9892 10.75 12.9925 10.75 12.9958C10.75 12.9991 10.75 13.0025 10.75 13.0058C10.75 13.0092 10.75 13.0125 10.75 13.0159C10.75 13.0193 10.75 13.0227 10.75 13.0261C10.75 13.0295 10.75 13.0329 10.75 13.0363C10.75 13.0397 10.75 13.0432 10.75 13.0466C10.75 13.05 10.75 13.0535 10.75 13.057C10.75 13.0604 10.75 13.0639 10.75 13.0674C10.75 13.0709 10.75 13.0744 10.75 13.0779C10.75 13.0814 10.75 13.0849 10.75 13.0885C10.75 13.092 10.75 13.0955 10.75 13.0991C10.75 13.1027 10.75 13.1062 10.75 13.1098C10.75 13.1134 10.75 13.117 10.75 13.1206C10.75 13.1242 10.75 13.1278 10.75 13.1314C10.75 13.135 10.75 13.1387 10.75 13.1423C10.75 13.146 10.75 13.1496 10.75 13.1533C10.75 13.157 10.75 13.1607 10.75 13.1644C10.75 13.1681 10.75 13.1718 10.75 13.1755C10.75 13.1792 10.75 13.1829 10.75 13.1867C10.75 13.1904 10.75 13.1942 10.75 13.198C10.75 13.2017 10.75 13.2055 10.75 13.2093C10.75 13.2131 10.75 13.2169 10.75 13.2207C10.75 13.2245 10.75 13.2283 10.75 13.2322C10.75 13.236 10.75 13.2399 10.75 13.2437C10.75 13.2476 10.75 13.2515 10.75 13.2554C10.75 13.2592 10.75 13.2631 10.75 13.2671C10.75 13.271 10.75 13.2749 10.75 13.2788C10.75 13.2828 10.75 13.2867 10.75 13.2907C10.75 13.2946 10.75 13.2986 10.75 13.3026C10.75 13.3066 10.75 13.3106 10.75 13.3146C10.75 13.3186 10.75 13.3226 10.75 13.3266C10.75 13.3307 10.75 13.3347 10.75 13.3388C10.75 13.3428 10.75 13.3469 10.75 13.351C10.75 13.355 10.75 13.3591 10.75 13.3632C10.75 13.3674 10.75 13.3715 10.75 13.3756C10.75 13.3797 10.75 13.3839 10.75 13.388C10.75 13.3922 10.75 13.3964 10.75 13.4005C10.75 13.4047 10.75 13.4089 10.75 13.4131C10.75 13.4173 10.75 13.4215 10.75 13.4258C10.75 13.43 10.75 13.4342 10.75 13.4385C10.75 13.4428 10.75 13.447 10.75 13.4513C10.75 13.4556 10.75 13.4599 10.75 13.4642C10.75 13.4685 10.75 13.4728 10.75 13.4771C10.75 13.4815 10.75 13.4858 10.75 13.4902C10.75 13.4945 10.75 13.4989 10.75 13.5033C10.75 13.5077 10.75 13.5121 10.75 13.5165C10.75 13.5209 10.75 13.5253 10.75 13.5297C10.75 13.5342 10.75 13.5386 10.75 13.5431C10.75 13.5475 10.75 13.552 10.75 13.5565C10.75 13.561 10.75 13.5655 10.75 13.57C10.75 13.5745 10.75 13.579 10.75 13.5836C10.75 13.5881 10.75 13.5927 10.75 13.5972C10.75 13.6018 10.75 13.6064 10.75 13.6109C10.75 13.6155 10.75 13.6201 10.75 13.6248C10.75 13.6294 10.75 13.634 10.75 13.6386C10.75 13.6433 10.75 13.6479 10.75 13.6526C10.75 13.6573 10.75 13.662 10.75 13.6667C10.75 13.6713 10.75 13.6761 10.75 13.6808C10.75 13.6855 10.75 13.6902 10.75 13.695C10.75 13.6997 10.75 13.7045 10.75 13.7093C10.75 13.714 10.75 13.7188 10.75 13.7236C10.75 13.7284 10.75 13.7332 10.75 13.7381C10.75 13.7429 10.75 13.7477 10.75 13.7526C10.75 13.7575 10.75 13.7623 10.75 13.7672C10.75 13.7721 10.75 13.777 10.75 13.7819C10.75 13.7868 10.75 13.7917 10.75 13.7967C10.75 13.8016 10.75 13.8065 10.75 13.8115C10.75 13.8165 10.75 13.8214 10.75 13.8264C10.75 13.8314 10.75 13.8364 10.75 13.8414C10.75 13.8465 10.75 13.8515 10.75 13.8565C10.75 13.8616 10.75 13.8666 10.75 13.8717C10.75 13.8768 10.75 13.8819 10.75 13.887C10.75 13.8921 10.75 13.8972 10.75 13.9023C10.75 13.9074 10.75 13.9126 10.75 13.9177C10.75 13.9229 10.75 13.9281 10.75 13.9332C10.75 13.9384 10.75 13.9436 10.75 13.9488C10.75 13.954 10.75 13.9593 10.75 13.9645C10.75 13.9697 10.75 13.975 10.75 13.9803C10.75 13.9855 10.75 13.9908 10.75 13.9961C10.75 14.0014 10.75 14.0067 10.75 14.012C10.75 14.0174 10.75 14.0227 10.75 14.028C10.75 14.0334 10.75 14.0388 10.75 14.0441C10.75 14.0495 10.75 14.0549 10.75 14.0603C10.75 14.0657 10.75 14.0712 10.75 14.0766C10.75 14.082 10.75 14.0875 10.75 14.0929C10.75 14.0984 10.75 14.1039 10.75 14.1094C10.75 14.1149 10.75 14.1204 10.75 14.1259C10.75 14.1314 10.75 14.137 10.75 14.1425C10.75 14.1481 10.75 14.1536 10.75 14.1592C10.75 14.1648 10.75 14.1704 10.75 14.176C10.75 14.1816 10.75 14.1872 10.75 14.1929C10.75 14.1985 10.75 14.2041 10.75 14.2098C10.75 14.2155 10.75 14.2212 10.75 14.2268C10.75 14.2325 10.75 14.2383 10.75 14.244C10.75 14.2497 10.75 14.2554 10.75 14.2612C10.75 14.2669 10.75 14.2727 10.75 14.2785C10.75 14.2843 10.75 14.2901 10.75 14.2959C10.75 14.3017 10.75 14.3075 10.75 14.3134C10.75 14.3192 10.75 14.3251 10.75 14.3309C10.75 14.3368 10.75 14.3427 10.75 14.3486C10.75 14.3545 10.75 14.3604 10.75 14.3663C10.75 14.3723 10.75 14.3782 10.75 14.3842C10.75 14.3901 10.75 14.3961 10.75 14.4021C10.75 14.4081 10.75 14.4141 10.75 14.4201C10.75 14.4261 10.75 14.4322 10.75 14.4382C10.75 14.4443 10.75 14.4503 10.75 14.4564C10.75 14.4625 10.75 14.4686 10.75 14.4747C10.75 14.4808 10.75 14.487 10.75 14.4931C10.75 14.4992 10.75 14.5054 10.75 14.5116C10.75 14.5177 10.75 14.5239 10.75 14.5301C10.75 14.5363 10.75 14.5425 10.75 14.5488C10.75 14.555 10.75 14.5612 10.75 14.5675C10.75 14.5738 10.75 14.58 10.75 14.5863C10.75 14.5926 10.75 14.5989 10.75 14.6053C10.75 14.6116 10.75 14.6179 10.75 14.6243C10.75 14.6306 10.75 14.637 10.75 14.6434C10.75 14.6498 10.75 14.6562 10.75 14.6626C10.75 14.669 10.75 14.6754 10.75 14.6819C10.75 14.6883 10.75 14.6948 10.75 14.7013C10.75 14.7077 10.75 14.7142 10.75 14.7208C10.75 14.7273 10.75 14.7338 10.75 14.7403C10.75 14.7469 10.75 14.7534 10.75 14.76C10.75 14.7666 10.75 14.7732 10.75 14.7798C10.75 14.7864 10.75 14.793 10.75 14.7996C10.75 14.8062 10.75 14.8129 10.75 14.8196C10.75 14.8262 10.75 14.8329 10.75 14.8396C10.75 14.8463 10.75 14.853 10.75 14.8597C10.75 14.8665 10.75 14.8732 10.75 14.88C10.75 14.8867 10.75 14.8935 10.75 14.9003C10.75 14.9071 10.75 14.9139 10.75 14.9207C10.75 14.9276 10.75 14.9344 10.75 14.9413C10.75 14.9481 10.75 14.955 10.75 14.9619C10.75 14.9688 10.75 14.9757 10.75 14.9826C10.75 14.9895 10.75 14.9964 10.75 15.0034C10.75 15.0103 10.75 15.0173 10.75 15.0243C10.75 15.0313 10.75 15.0383 10.75 15.0453C10.75 15.0523 10.75 15.0593 10.75 15.0664C10.75 15.0734 10.75 15.0805 10.75 15.0876C10.75 15.0947 10.75 15.1018 10.75 15.1089C10.75 15.116 10.75 15.1231 10.75 15.1303C10.75 15.1374 10.75 15.1446 10.75 15.1518C10.75 15.1589 10.75 15.1661 10.75 15.1734C10.75 15.1806 10.75 15.1878 10.75 15.195C10.75 15.2023 10.75 15.2095 10.75 15.2168C10.75 15.2241 10.75 15.2314 10.75 15.2387C10.75 15.246 10.75 15.2533 10.75 15.2607C10.75 15.268 10.75 15.2754 10.75 15.2828C10.75 15.2901 10.75 15.2975 10.75 15.3049C10.75 15.3124 10.75 15.3198 10.75 15.3272C10.75 15.3347 10.75 15.3421 10.75 15.3496C10.75 15.3571 10.75 15.3646 10.75 15.3721C10.75 15.3796 10.75 15.3871 10.75 15.3947C10.75 15.4022 10.75 15.4098 10.75 15.4174C10.75 15.4249 10.75 15.4325 10.75 15.4401C10.75 15.4477 10.75 15.4554 10.75 15.463C10.75 15.4707 10.75 15.4783 10.75 15.486C10.75 15.4937 10.75 15.5014 10.75 15.5091C10.75 15.5168 10.75 15.5245 10.75 15.5323C10.75 15.54 10.75 15.5478 10.75 15.5556C10.75 15.5633 10.75 15.5711 10.75 15.579C10.75 15.5868 10.75 15.5946 10.75 15.6025C10.75 15.6103 10.75 15.6182 10.75 15.626C10.75 15.6339 10.75 15.6418 10.75 15.6497C10.75 15.6577 10.75 15.6656 10.75 15.6736C10.75 15.6815 10.75 15.6895 10.75 15.6975C10.75 15.7054 10.75 15.7134 10.75 15.7215C10.75 15.7295 10.75 15.7375 10.75 15.7456C10.75 15.7536 10.75 15.7617 10.75 15.7698C10.75 15.7779 10.75 15.786 10.75 15.7941C10.75 15.8022 10.75 15.8104 10.75 15.8185C10.75 15.8267 10.75 15.8349 10.75 15.8431C10.75 15.8513 10.75 15.8595 10.75 15.8677C10.75 15.8759 10.75 15.8842 10.75 15.8924C10.75 15.9007 10.75 15.909 10.75 15.9173C10.75 15.9256 10.75 15.9339 10.75 15.9422C10.75 15.9506 10.75 15.9589 10.75 15.9673C10.75 15.9757 10.75 15.9841 10.75 15.9925C10.75 16.0009 10.75 16.0093 10.75 16.0177C10.75 16.0262 10.75 16.0346 10.75 16.0431C10.75 16.0516 10.75 16.0601 10.75 16.0686C10.75 16.0771 10.75 16.0856 10.75 16.0942C10.75 16.1027 10.75 16.1113 10.75 16.1199C10.75 16.1285 10.75 16.1371 10.75 16.1457C10.75 16.1543 10.75 16.1629 10.75 16.1716C10.75 16.1802 10.75 16.1889 10.75 16.1976C10.75 16.2063 10.75 16.215 10.75 16.2237C10.75 16.2325 10.75 16.2412 10.75 16.25C10.75 16.2587 10.75 16.2675 10.75 16.2763C10.75 16.2851 10.75 16.2939 10.75 16.3028C10.75 16.3116 10.75 16.3204 10.75 16.3293C10.75 16.3382 10.75 16.3471 10.75 16.356C10.75 16.3649 10.75 16.3738 10.75 16.3828C10.75 16.3917 10.75 16.4007 10.75 16.4097C10.75 16.4186 10.75 16.4276 10.75 16.4367C10.75 16.4457 10.75 16.4547 10.75 16.4638C10.75 16.4728 10.75 16.4819 10.75 16.491C10.75 16.5001 10.75 16.5092 10.75 16.5183C10.75 16.5274 10.75 16.5366 10.75 16.5457C10.75 16.5549 10.75 16.5641 10.75 16.5733C10.75 16.5825 10.75 16.5917 10.75 16.601C10.75 16.6102 10.75 16.6195 10.75 16.6287C10.75 16.638 10.75 16.6473 10.75 16.6566C10.75 16.6659 10.75 16.6753 10.75 16.6846C10.75 16.694 10.75 16.7033 10.75 16.7127C10.75 16.7221 10.75 16.7315 10.75 16.7409C10.75 16.7504 10.75 16.7598 10.75 16.7693C10.75 16.7787 10.75 16.7882 10.75 16.7977C10.75 16.8072 10.75 16.8167 10.75 16.8263C10.75 16.8358 10.75 16.8454 10.75 16.8549C10.75 16.8645 10.75 16.8741 10.75 16.8837C10.75 16.8933 10.75 16.903 10.75 16.9126C10.75 16.9223 10.75 16.9319 10.75 16.9416C10.75 16.9513 10.75 16.961 10.75 16.9708C10.75 16.9805 10.75 16.9902 10.75 17H13.25C13.25 16.9902 13.25 16.9805 13.25 16.9708C13.25 16.961 13.25 16.9513 13.25 16.9416C13.25 16.9319 13.25 16.9223 13.25 16.9126C13.25 16.903 13.25 16.8933 13.25 16.8837C13.25 16.8741 13.25 16.8645 13.25 16.8549C13.25 16.8454 13.25 16.8358 13.25 16.8263C13.25 16.8167 13.25 16.8072 13.25 16.7977C13.25 16.7882 13.25 16.7787 13.25 16.7693C13.25 16.7598 13.25 16.7504 13.25 16.7409C13.25 16.7315 13.25 16.7221 13.25 16.7127C13.25 16.7033 13.25 16.694 13.25 16.6846C13.25 16.6753 13.25 16.6659 13.25 16.6566C13.25 16.6473 13.25 16.638 13.25 16.6287C13.25 16.6195 13.25 16.6102 13.25 16.601C13.25 16.5917 13.25 16.5825 13.25 16.5733C13.25 16.5641 13.25 16.5549 13.25 16.5457C13.25 16.5366 13.25 16.5274 13.25 16.5183C13.25 16.5092 13.25 16.5001 13.25 16.491C13.25 16.4819 13.25 16.4728 13.25 16.4638C13.25 16.4547 13.25 16.4457 13.25 16.4367C13.25 16.4276 13.25 16.4186 13.25 16.4097C13.25 16.4007 13.25 16.3917 13.25 16.3828C13.25 16.3738 13.25 16.3649 13.25 16.356C13.25 16.3471 13.25 16.3382 13.25 16.3293C13.25 16.3204 13.25 16.3116 13.25 16.3028C13.25 16.2939 13.25 16.2851 13.25 16.2763C13.25 16.2675 13.25 16.2587 13.25 16.25C13.25 16.2412 13.25 16.2325 13.25 16.2237C13.25 16.215 13.25 16.2063 13.25 16.1976C13.25 16.1889 13.25 16.1802 13.25 16.1716C13.25 16.1629 13.25 16.1543 13.25 16.1457C13.25 16.1371 13.25 16.1285 13.25 16.1199C13.25 16.1113 13.25 16.1027 13.25 16.0942C13.25 16.0856 13.25 16.0771 13.25 16.0686C13.25 16.0601 13.25 16.0516 13.25 16.0431C13.25 16.0346 13.25 16.0262 13.25 16.0177C13.25 16.0093 13.25 16.0009 13.25 15.9925C13.25 15.9841 13.25 15.9757 13.25 15.9673C13.25 15.9589 13.25 15.9506 13.25 15.9422C13.25 15.9339 13.25 15.9256 13.25 15.9173C13.25 15.909 13.25 15.9007 13.25 15.8924C13.25 15.8842 13.25 15.8759 13.25 15.8677C13.25 15.8595 13.25 15.8513 13.25 15.8431C13.25 15.8349 13.25 15.8267 13.25 15.8185C13.25 15.8104 13.25 15.8022 13.25 15.7941C13.25 15.786 13.25 15.7779 13.25 15.7698C13.25 15.7617 13.25 15.7536 13.25 15.7456C13.25 15.7375 13.25 15.7295 13.25 15.7215C13.25 15.7134 13.25 15.7054 13.25 15.6975C13.25 15.6895 13.25 15.6815 13.25 15.6736C13.25 15.6656 13.25 15.6577 13.25 15.6497C13.25 15.6418 13.25 15.6339 13.25 15.626C13.25 15.6182 13.25 15.6103 13.25 15.6025C13.25 15.5946 13.25 15.5868 13.25 15.579C13.25 15.5711 13.25 15.5633 13.25 15.5556C13.25 15.5478 13.25 15.54 13.25 15.5323C13.25 15.5245 13.25 15.5168 13.25 15.5091C13.25 15.5014 13.25 15.4937 13.25 15.486C13.25 15.4783 13.25 15.4707 13.25 15.463C13.25 15.4554 13.25 15.4477 13.25 15.4401C13.25 15.4325 13.25 15.4249 13.25 15.4174C13.25 15.4098 13.25 15.4022 13.25 15.3947C13.25 15.3871 13.25 15.3796 13.25 15.3721C13.25 15.3646 13.25 15.3571 13.25 15.3496C13.25 15.3421 13.25 15.3347 13.25 15.3272C13.25 15.3198 13.25 15.3124 13.25 15.3049C13.25 15.2975 13.25 15.2901 13.25 15.2828C13.25 15.2754 13.25 15.268 13.25 15.2607C13.25 15.2533 13.25 15.246 13.25 15.2387C13.25 15.2314 13.25 15.2241 13.25 15.2168C13.25 15.2095 13.25 15.2023 13.25 15.195C13.25 15.1878 13.25 15.1806 13.25 15.1734C13.25 15.1661 13.25 15.1589 13.25 15.1518C13.25 15.1446 13.25 15.1374 13.25 15.1303C13.25 15.1231 13.25 15.116 13.25 15.1089C13.25 15.1018 13.25 15.0947 13.25 15.0876C13.25 15.0805 13.25 15.0734 13.25 15.0664C13.25 15.0593 13.25 15.0523 13.25 15.0453C13.25 15.0383 13.25 15.0313 13.25 15.0243C13.25 15.0173 13.25 15.0103 13.25 15.0034C13.25 14.9964 13.25 14.9895 13.25 14.9826C13.25 14.9757 13.25 14.9688 13.25 14.9619C13.25 14.955 13.25 14.9481 13.25 14.9413C13.25 14.9344 13.25 14.9276 13.25 14.9207C13.25 14.9139 13.25 14.9071 13.25 14.9003C13.25 14.8935 13.25 14.8867 13.25 14.88C13.25 14.8732 13.25 14.8665 13.25 14.8597C13.25 14.853 13.25 14.8463 13.25 14.8396C13.25 14.8329 13.25 14.8262 13.25 14.8196C13.25 14.8129 13.25 14.8062 13.25 14.7996C13.25 14.793 13.25 14.7864 13.25 14.7798C13.25 14.7732 13.25 14.7666 13.25 14.76C13.25 14.7534 13.25 14.7469 13.25 14.7403C13.25 14.7338 13.25 14.7273 13.25 14.7208C13.25 14.7142 13.25 14.7077 13.25 14.7013C13.25 14.6948 13.25 14.6883 13.25 14.6819C13.25 14.6754 13.25 14.669 13.25 14.6626C13.25 14.6562 13.25 14.6498 13.25 14.6434C13.25 14.637 13.25 14.6306 13.25 14.6243C13.25 14.6179 13.25 14.6116 13.25 14.6053C13.25 14.5989 13.25 14.5926 13.25 14.5863C13.25 14.58 13.25 14.5738 13.25 14.5675C13.25 14.5612 13.25 14.555 13.25 14.5488C13.25 14.5425 13.25 14.5363 13.25 14.5301C13.25 14.5239 13.25 14.5177 13.25 14.5116C13.25 14.5054 13.25 14.4992 13.25 14.4931C13.25 14.487 13.25 14.4808 13.25 14.4747C13.25 14.4686 13.25 14.4625 13.25 14.4564C13.25 14.4503 13.25 14.4443 13.25 14.4382C13.25 14.4322 13.25 14.4261 13.25 14.4201C13.25 14.4141 13.25 14.4081 13.25 14.4021C13.25 14.3961 13.25 14.3901 13.25 14.3842C13.25 14.3782 13.25 14.3723 13.25 14.3663C13.25 14.3604 13.25 14.3545 13.25 14.3486C13.25 14.3427 13.25 14.3368 13.25 14.3309C13.25 14.3251 13.25 14.3192 13.25 14.3134C13.25 14.3075 13.25 14.3017 13.25 14.2959C13.25 14.2901 13.25 14.2843 13.25 14.2785C13.25 14.2727 13.25 14.2669 13.25 14.2612C13.25 14.2554 13.25 14.2497 13.25 14.244C13.25 14.2383 13.25 14.2325 13.25 14.2268C13.25 14.2212 13.25 14.2155 13.25 14.2098C13.25 14.2041 13.25 14.1985 13.25 14.1929C13.25 14.1872 13.25 14.1816 13.25 14.176C13.25 14.1704 13.25 14.1648 13.25 14.1592C13.25 14.1536 13.25 14.1481 13.25 14.1425C13.25 14.137 13.25 14.1314 13.25 14.1259C13.25 14.1204 13.25 14.1149 13.25 14.1094C13.25 14.1039 13.25 14.0984 13.25 14.0929C13.25 14.0875 13.25 14.082 13.25 14.0766C13.25 14.0712 13.25 14.0657 13.25 14.0603C13.25 14.0549 13.25 14.0495 13.25 14.0441C13.25 14.0388 13.25 14.0334 13.25 14.028C13.25 14.0227 13.25 14.0174 13.25 14.012C13.25 14.0067 13.25 14.0014 13.25 13.9961C13.25 13.9908 13.25 13.9855 13.25 13.9803C13.25 13.975 13.25 13.9697 13.25 13.9645C13.25 13.9593 13.25 13.954 13.25 13.9488C13.25 13.9436 13.25 13.9384 13.25 13.9332C13.25 13.9281 13.25 13.9229 13.25 13.9177C13.25 13.9126 13.25 13.9074 13.25 13.9023C13.25 13.8972 13.25 13.8921 13.25 13.887C13.25 13.8819 13.25 13.8768 13.25 13.8717C13.25 13.8666 13.25 13.8616 13.25 13.8565C13.25 13.8515 13.25 13.8465 13.25 13.8414C13.25 13.8364 13.25 13.8314 13.25 13.8264C13.25 13.8214 13.25 13.8165 13.25 13.8115C13.25 13.8065 13.25 13.8016 13.25 13.7967C13.25 13.7917 13.25 13.7868 13.25 13.7819C13.25 13.777 13.25 13.7721 13.25 13.7672C13.25 13.7623 13.25 13.7575 13.25 13.7526C13.25 13.7477 13.25 13.7429 13.25 13.7381C13.25 13.7332 13.25 13.7284 13.25 13.7236C13.25 13.7188 13.25 13.714 13.25 13.7093C13.25 13.7045 13.25 13.6997 13.25 13.695C13.25 13.6902 13.25 13.6855 13.25 13.6808C13.25 13.6761 13.25 13.6713 13.25 13.6667C13.25 13.662 13.25 13.6573 13.25 13.6526C13.25 13.6479 13.25 13.6433 13.25 13.6386C13.25 13.634 13.25 13.6294 13.25 13.6248C13.25 13.6201 13.25 13.6155 13.25 13.6109C13.25 13.6064 13.25 13.6018 13.25 13.5972C13.25 13.5927 13.25 13.5881 13.25 13.5836C13.25 13.579 13.25 13.5745 13.25 13.57C13.25 13.5655 13.25 13.561 13.25 13.5565C13.25 13.552 13.25 13.5475 13.25 13.5431C13.25 13.5386 13.25 13.5342 13.25 13.5297C13.25 13.5253 13.25 13.5209 13.25 13.5165C13.25 13.5121 13.25 13.5077 13.25 13.5033C13.25 13.4989 13.25 13.4945 13.25 13.4902C13.25 13.4858 13.25 13.4815 13.25 13.4771C13.25 13.4728 13.25 13.4685 13.25 13.4642C13.25 13.4599 13.25 13.4556 13.25 13.4513C13.25 13.447 13.25 13.4428 13.25 13.4385C13.25 13.4342 13.25 13.43 13.25 13.4258C13.25 13.4215 13.25 13.4173 13.25 13.4131C13.25 13.4089 13.25 13.4047 13.25 13.4005C13.25 13.3964 13.25 13.3922 13.25 13.388C13.25 13.3839 13.25 13.3797 13.25 13.3756C13.25 13.3715 13.25 13.3674 13.25 13.3632C13.25 13.3591 13.25 13.355 13.25 13.351C13.25 13.3469 13.25 13.3428 13.25 13.3388C13.25 13.3347 13.25 13.3307 13.25 13.3266C13.25 13.3226 13.25 13.3186 13.25 13.3146C13.25 13.3106 13.25 13.3066 13.25 13.3026C13.25 13.2986 13.25 13.2946 13.25 13.2907C13.25 13.2867 13.25 13.2828 13.25 13.2788C13.25 13.2749 13.25 13.271 13.25 13.2671C13.25 13.2631 13.25 13.2592 13.25 13.2554C13.25 13.2515 13.25 13.2476 13.25 13.2437C13.25 13.2399 13.25 13.236 13.25 13.2322C13.25 13.2283 13.25 13.2245 13.25 13.2207C13.25 13.2169 13.25 13.2131 13.25 13.2093C13.25 13.2055 13.25 13.2017 13.25 13.198C13.25 13.1942 13.25 13.1904 13.25 13.1867C13.25 13.1829 13.25 13.1792 13.25 13.1755C13.25 13.1718 13.25 13.1681 13.25 13.1644C13.25 13.1607 13.25 13.157 13.25 13.1533C13.25 13.1496 13.25 13.146 13.25 13.1423C13.25 13.1387 13.25 13.135 13.25 13.1314C13.25 13.1278 13.25 13.1242 13.25 13.1206C13.25 13.117 13.25 13.1134 13.25 13.1098C13.25 13.1062 13.25 13.1027 13.25 13.0991C13.25 13.0955 13.25 13.092 13.25 13.0885C13.25 13.0849 13.25 13.0814 13.25 13.0779C13.25 13.0744 13.25 13.0709 13.25 13.0674C13.25 13.0639 13.25 13.0604 13.25 13.057C13.25 13.0535 13.25 13.05 13.25 13.0466C13.25 13.0432 13.25 13.0397 13.25 13.0363C13.25 13.0329 13.25 13.0295 13.25 13.0261C13.25 13.0227 13.25 13.0193 13.25 13.0159C13.25 13.0125 13.25 13.0092 13.25 13.0058C13.25 13.0025 13.25 12.9991 13.25 12.9958C13.25 12.9925 13.25 12.9892 13.25 12.9858C13.25 12.9825 13.25 12.9792 13.25 12.976C13.25 12.9727 13.25 12.9694 13.25 12.9661C13.25 12.9629 13.25 12.9596 13.25 12.9564C13.25 12.9531 13.25 12.9499 13.25 12.9467C13.25 12.9435 13.25 12.9402 13.25 12.9371C13.25 12.9339 13.25 12.9307 13.25 12.9275C13.25 12.9243 13.25 12.9211 13.25 12.918C13.25 12.9148 13.25 12.9117 13.25 12.9086C13.25 12.9054 13.25 12.9023 13.25 12.8992C13.25 12.8961 13.25 12.893 13.25 12.8899C13.25 12.8868 13.25 12.8837 13.25 12.8807C13.25 12.8776 13.25 12.8745 13.25 12.8715C13.25 12.8684 13.25 12.8654 13.25 12.8624C13.25 12.8593 13.25 12.8563 13.25 12.8533C13.25 12.8503 13.25 12.8473 13.25 12.8443C13.25 12.8414 13.25 12.8384 13.25 12.8354C13.25 12.8325 13.25 12.8295 13.25 12.8266C13.25 12.8236 13.25 12.8207 13.25 12.8178C13.25 12.8149 13.25 12.8119 13.25 12.809C13.25 12.8061 13.25 12.8033 13.25 12.8004C13.25 12.7975 13.25 12.7946 13.25 12.7918C13.25 12.7889 13.25 12.7861 13.25 12.7832C13.25 12.7804 13.25 12.7776 13.25 12.7747C13.25 12.7719 13.25 12.7691 13.25 12.7663C13.25 12.7635 13.25 12.7607 13.25 12.758C13.25 12.7552 13.25 12.7524 13.25 12.7497C13.25 12.7469 13.25 12.7442 13.25 12.7414C13.25 12.7387 13.25 12.736 13.25 12.7332C13.25 12.7305 13.25 12.7278 13.25 12.7251C13.25 12.7224 13.25 12.7198 13.25 12.7171C13.25 12.7144 13.25 12.7117 13.25 12.7091C13.25 12.7064 13.25 12.7038 13.25 12.7011C13.25 12.6985 13.25 12.6959 13.25 12.6933C13.25 12.6906 13.25 12.688 13.25 12.6854C13.25 12.6828 13.25 12.6803 13.25 12.6777C13.25 12.6751 13.25 12.6725 13.25 12.67C13.25 12.6674 13.25 12.6649 13.25 12.6623C13.25 12.6598 13.25 12.6573 13.25 12.6548C13.25 12.6522 13.25 12.6497 13.25 12.6472C13.25 12.6447 13.25 12.6422 13.25 12.6398C13.25 12.6373 13.25 12.6348 13.25 12.6324C13.25 12.6299 13.25 12.6274 13.25 12.625C13.25 12.6226 13.25 12.6201 13.25 12.6177C13.25 12.6153 13.25 12.6129 13.25 12.6105C13.25 12.6081 13.25 12.6057 13.25 12.6033C13.25 12.6009 13.25 12.5985 13.25 12.5962C13.25 12.5938 13.25 12.5914 13.25 12.5891C13.25 12.5867 13.25 12.5844 13.25 12.5821C13.25 12.5797 13.25 12.5774 13.25 12.5751C13.25 12.5728 13.25 12.5705 13.25 12.5682C13.25 12.5659 13.25 12.5636 13.25 12.5614C13.25 12.5591 13.25 12.5568 13.25 12.5546C13.25 12.5523 13.25 12.5501 13.25 12.5478C13.25 12.5456 13.25 12.5434 13.25 12.5412C13.25 12.5389 13.25 12.5367 13.25 12.5345C13.25 12.5323 13.25 12.5301 13.25 12.528C13.25 12.5258 13.25 12.5236 13.25 12.5214C13.25 12.5193 13.25 12.5171 13.25 12.515C13.25 12.5128 13.25 12.5107 13.25 12.5086C13.25 12.5064 13.25 12.5043 13.25 12.5022C13.25 12.5001 13.25 12.498 13.25 12.4959C13.25 12.4938 13.25 12.4917 13.25 12.4897C13.25 12.4876 13.25 12.4855 13.25 12.4835C13.25 12.4814 13.25 12.4794 13.25 12.4773C13.25 12.4753 13.25 12.4732 13.25 12.4712C13.25 12.4692 13.25 12.4672 13.25 12.4652C13.25 12.4632 13.25 12.4612 13.25 12.4592C13.25 12.4572 13.25 12.4552 13.25 12.4533C13.25 12.4513 13.25 12.4493 13.25 12.4474C13.25 12.4454 13.25 12.4435 13.25 12.4415C13.25 12.4396 13.25 12.4377 13.25 12.4358C13.25 12.4338 13.25 12.4319 13.25 12.43C13.25 12.4281 13.25 12.4262 13.25 12.4243C13.25 12.4224 13.25 12.4206 13.25 12.4187C13.25 12.4168 13.25 12.415 13.25 12.4131C13.25 12.4113 13.25 12.4094 13.25 12.4076C13.25 12.4057 13.25 12.4039 13.25 12.4021C13.25 12.4003 13.25 12.3985 13.25 12.3967C13.25 12.3949 13.25 12.3931 13.25 12.3913C13.25 12.3895 13.25 12.3877 13.25 12.3859C13.25 12.3842 13.25 12.3824 13.25 12.3807C13.25 12.3789 13.25 12.3772 13.25 12.3754C13.25 12.3737 13.25 12.372 13.25 12.3702C13.25 12.3685 13.25 12.3668 13.25 12.3651C13.25 12.3634 13.25 12.3617 13.25 12.36C13.25 12.3583 13.25 12.3566 13.25 12.355C13.25 12.3533 13.25 12.3516 13.25 12.35C13.25 12.3483 13.25 12.3466 13.25 12.345C13.25 12.3434 13.25 12.3417 13.25 12.3401C13.25 12.3385 13.25 12.3368 13.25 12.3352C13.25 12.3336 13.25 12.332 13.25 12.3304C13.25 12.3288 13.25 12.3272 13.25 12.3257C13.25 12.3241 13.25 12.3225 13.25 12.3209C13.25 12.3194 13.25 12.3178 13.25 12.3163C13.25 12.3147 13.25 12.3132 13.25 12.3116C13.25 12.3101 13.25 12.3086 13.25 12.3071C13.25 12.3055 13.25 12.304 13.25 12.3025C13.25 12.301 13.25 12.2995 13.25 12.298C13.25 12.2965 13.25 12.2951 13.25 12.2936C13.25 12.2921 13.25 12.2906 13.25 12.2892C13.25 12.2877 13.25 12.2863 13.25 12.2848C13.25 12.2834 13.25 12.2819 13.25 12.2805C13.25 12.2791 13.25 12.2776 13.25 12.2762C13.25 12.2748 13.25 12.2734 13.25 12.272C13.25 12.2706 13.25 12.2692 13.25 12.2678C13.25 12.2664 13.25 12.265 13.25 12.2637C13.25 12.2623 13.25 12.2609 13.25 12.2596C13.25 12.2582 13.25 12.2569 13.25 12.2555C13.25 12.2542 13.25 12.2528 13.25 12.2515C13.25 12.2502 13.25 12.2488 13.25 12.2475C13.25 12.2462 13.25 12.2449 13.25 12.2436C13.25 12.2423 13.25 12.241 13.25 12.2397C13.25 12.2384 13.25 12.2371 13.25 12.2359C13.25 12.2346 13.25 12.2333 13.25 12.2321C13.25 12.2308 13.25 12.2296 13.25 12.2283C13.25 12.2271 13.25 12.2258 13.25 12.2246C13.25 12.2233 13.25 12.2221 13.25 12.2209C13.25 12.2197 13.25 12.2185 13.25 12.2173C13.25 12.2161 13.25 12.2149 13.25 12.2137C13.25 12.2125 13.25 12.2113 13.25 12.2101C13.25 12.2089 13.25 12.2077 13.25 12.2066C13.25 12.2054 13.25 12.2042 13.25 12.2031C13.25 12.2019 13.25 12.2008 13.25 12.1997C13.25 12.1985 13.25 12.1974 13.25 12.1962C13.25 12.1951 13.25 12.194 13.25 12.1929C13.25 12.1918 13.25 12.1907 13.25 12.1896C13.25 12.1885 13.25 12.1874 13.25 12.1863C13.25 12.1852 13.25 12.1841 13.25 12.183C13.25 12.1819 13.25 12.1809 13.25 12.1798C13.25 12.1787 13.25 12.1777 13.25 12.1766C13.25 12.1756 13.25 12.1745 13.25 12.1735C13.25 12.1725 13.25 12.1714 13.25 12.1704C13.25 12.1694 13.25 12.1684 13.25 12.1673C13.25 12.1663 13.25 12.1653 13.25 12.1643C13.25 12.1633 13.25 12.1623 13.25 12.1613C13.25 12.1603 13.25 12.1594 13.25 12.1584C13.25 12.1574 13.25 12.1564 13.25 12.1555C13.25 12.1545 13.25 12.1535 13.25 12.1526C13.25 12.1516 13.25 12.1507 13.25 12.1497C13.25 12.1488 13.25 12.1479 13.25 12.1469C13.25 12.146 13.25 12.1451 13.25 12.1442C13.25 12.1432 13.25 12.1423 13.25 12.1414C13.25 12.1405 13.25 12.1396 13.25 12.1387C13.25 12.1378 13.25 12.1369 13.25 12.1361C13.25 12.1352 13.25 12.1343 13.25 12.1334C13.25 12.1326 13.25 12.1317 13.25 12.1308C13.25 12.13 13.25 12.1291 13.25 12.1283C13.25 12.1274 13.25 12.1266 13.25 12.1257C13.25 12.1249 13.25 12.1241 13.25 12.1232C13.25 12.1224 13.25 12.1216 13.25 12.1208C13.25 12.12 13.25 12.1191 13.25 12.1183C13.25 12.1175 13.25 12.1167 13.25 12.1159C13.25 12.1151 13.25 12.1144 13.25 12.1136C13.25 12.1128 13.25 12.112 13.25 12.1112C13.25 12.1105 13.25 12.1097 13.25 12.1089C13.25 12.1082 13.25 12.1074 13.25 12.1067C13.25 12.1059 13.25 12.1052 13.25 12.1044C13.25 12.1037 13.25 12.103 13.25 12.1022C13.25 12.1015 13.25 12.1008 13.25 12.1C13.25 12.0993 13.25 12.0986 13.25 12.0979C13.25 12.0972 13.25 12.0965 13.25 12.0958C13.25 12.0951 13.25 12.0944 13.25 12.0937C13.25 12.093 13.25 12.0923 13.25 12.0917C13.25 12.091 13.25 12.0903 13.25 12.0896C13.25 12.089 13.25 12.0883 13.25 12.0876C13.25 12.087 13.25 12.0863 13.25 12.0857C13.25 12.085 13.25 12.0844 13.25 12.0837C13.25 12.0831 13.25 12.0825 13.25 12.0818C13.25 12.0812 13.25 12.0806 13.25 12.08C13.25 12.0794 13.25 12.0787 13.25 12.0781C13.25 12.0775 13.25 12.0769 13.25 12.0763C13.25 12.0757 13.25 12.0751 13.25 12.0745C13.25 12.0739 13.25 12.0733 13.25 12.0728C13.25 12.0722 13.25 12.0716 13.25 12.071C13.25 12.0705 13.25 12.0699 13.25 12.0693C13.25 12.0688 13.25 12.0682 13.25 12.0676C13.25 12.0671 13.25 12.0665 13.25 12.066C13.25 12.0655 13.25 12.0649 13.25 12.0644C13.25 12.0638 13.25 12.0633 13.25 12.0628C13.25 12.0622 13.25 12.0617 13.25 12.0612C13.25 12.0607 13.25 12.0602 13.25 12.0597C13.25 12.0592 13.25 12.0586 13.25 12.0581C13.25 12.0576 13.25 12.0571 13.25 12.0567C13.25 12.0562 13.25 12.0557 13.25 12.0552C13.25 12.0547 13.25 12.0542 13.25 12.0538C13.25 12.0533 13.25 12.0528 13.25 12.0523C13.25 12.0519 13.25 12.0514 13.25 12.0509C13.25 12.0505 13.25 12.05 13.25 12.0496C13.25 12.0491 13.25 12.0487 13.25 12.0482C13.25 12.0478 13.25 12.0474 13.25 12.0469C13.25 12.0465 13.25 12.0461 13.25 12.0456C13.25 12.0452 13.25 12.0448 13.25 12.0444C13.25 12.044 13.25 12.0435 13.25 12.0431C13.25 12.0427 13.25 12.0423 13.25 12.0419C13.25 12.0415 13.25 12.0411 13.25 12.0407C13.25 12.0403 13.25 12.0399 13.25 12.0395C13.25 12.0391 13.25 12.0388 13.25 12.0384C13.25 12.038 13.25 12.0376 13.25 12.0373C13.25 12.0369 13.25 12.0365 13.25 12.0361C13.25 12.0358 13.25 12.0354 13.25 12.0351C13.25 12.0347 13.25 12.0344 13.25 12.034C13.25 12.0336 13.25 12.0333 13.25 12.033C13.25 12.0326 13.25 12.0323 13.25 12.0319C13.25 12.0316 13.25 12.0313 13.25 12.0309C13.25 12.0306 13.25 12.0303 13.25 12.03C13.25 12.0296 13.25 12.0293 13.25 12.029C13.25 12.0287 13.25 12.0284 13.25 12.0281C13.25 12.0278 13.25 12.0275 13.25 12.0272C13.25 12.0269 13.25 12.0266 13.25 12.0263C13.25 12.026 13.25 12.0257 13.25 12.0254C13.25 12.0251 13.25 12.0248 13.25 12.0245C13.25 12.0242 13.25 12.024 13.25 12.0237C13.25 12.0234 13.25 12.0231 13.25 12.0229C13.25 12.0226 13.25 12.0223 13.25 12.0221C13.25 12.0218 13.25 12.0216 13.25 12.0213C13.25 12.021 13.25 12.0208 13.25 12.0205C13.25 12.0203 13.25 12.02 13.25 12.0198C13.25 12.0196 13.25 12.0193 13.25 12.0191C13.25 12.0188 13.25 12.0186 13.25 12.0184C13.25 12.0181 13.25 12.0179 13.25 12.0177C13.25 12.0175 13.25 12.0172 13.25 12.017C13.25 12.0168 13.25 12.0166 13.25 12.0164C13.25 12.0161 13.25 12.0159 13.25 12.0157C13.25 12.0155 13.25 12.0153 13.25 12.0151C13.25 12.0149 13.25 12.0147 13.25 12.0145C13.25 12.0143 13.25 12.0141 13.25 12.0139C13.25 12.0137 13.25 12.0135 13.25 12.0133C13.25 12.0131 13.25 12.013 13.25 12.0128C13.25 12.0126 13.25 12.0124 13.25 12.0122C13.25 12.0121 13.25 12.0119 13.25 12.0117C13.25 12.0115 13.25 12.0114 13.25 12.0112C13.25 12.011 13.25 12.0109 13.25 12.0107C13.25 12.0105 13.25 12.0104 13.25 12.0102C13.25 12.0101 13.25 12.0099 13.25 12.0098C13.25 12.0096 13.25 12.0095 13.25 12.0093C13.25 12.0092 13.25 12.009 13.25 12.0089C13.25 12.0087 13.25 12.0086 13.25 12.0085C13.25 12.0083 13.25 12.0082 13.25 12.008C13.25 12.0079 13.25 12.0078 13.25 12.0077C13.25 12.0075 13.25 12.0074 13.25 12.0073C13.25 12.0071 13.25 12.007 13.25 12.0069C13.25 12.0068 13.25 12.0067 13.25 12.0065C13.25 12.0064 13.25 12.0063 13.25 12.0062C13.25 12.0061 13.25 12.006 13.25 12.0059C13.25 12.0058 13.25 12.0057 13.25 12.0055C13.25 12.0054 13.25 12.0053 13.25 12.0052C13.25 12.0051 13.25 12.005 13.25 12.0049C13.25 12.0048 13.25 12.0047 13.25 12.0047C13.25 12.0046 13.25 12.0045 13.25 12.0044C13.25 12.0043 13.25 12.0042 13.25 12.0041C13.25 12.004 13.25 12.004 13.25 12.0039C13.25 12.0038 13.25 12.0037 13.25 12.0036C13.25 12.0035 13.25 12.0035 13.25 12.0034C13.25 12.0033 13.25 12.0032 13.25 12.0032C13.25 12.0031 13.25 12.003 13.25 12.003C13.25 12.0029 13.25 12.0028 13.25 12.0028C13.25 12.0027 13.25 12.0026 13.25 12.0026C13.25 12.0025 13.25 12.0024 13.25 12.0024C13.25 12.0023 13.25 12.0023 13.25 12.0022C13.25 12.0022 13.25 12.0021 13.25 12.002C13.25 12.002 13.25 12.0019 13.25 12.0019C13.25 12.0018 13.25 12.0018 13.25 12.0017C13.25 12.0017 13.25 12.0016 13.25 12.0016C13.25 12.0016 13.25 12.0015 13.25 12.0015C13.25 12.0014 13.25 12.0014 13.25 12.0013C13.25 12.0013 13.25 12.0013 13.25 12.0012C13.25 12.0012 13.25 12.0011 13.25 12.0011C13.25 12.0011 13.25 12.001 13.25 12.001C13.25 12.001 13.25 12.0009 13.25 12.0009C13.25 12.0009 13.25 12.0008 13.25 12.0008C13.25 12.0008 13.25 12.0008 13.25 12.0007C13.25 12.0007 13.25 12.0007 13.25 12.0007C13.25 12.0006 13.25 12.0006 13.25 12.0006C13.25 12.0006 13.25 12.0005 13.25 12.0005C13.25 12.0005 13.25 12.0005 13.25 12.0005C13.25 12.0004 13.25 12.0004 13.25 12.0004C13.25 12.0004 13.25 12.0004 13.25 12.0003C13.25 12.0003 13.25 12.0003 13.25 12.0003C13.25 12.0003 13.25 12.0003 13.25 12.0003C13.25 12.0002 13.25 12.0002 13.25 12.0002C13.25 12.0002 13.25 12.0002 13.25 12.0002C13.25 12.0002 13.25 12.0002 13.25 12.0002C13.25 12.0001 13.25 12.0001 13.25 12.0001C13.25 12.0001 13.25 12.0001 13.25 12.0001C13.25 12.0001 13.25 12.0001 13.25 12.0001C13.25 12.0001 13.25 12.0001 13.25 12.0001C13.25 12.0001 13.25 12.0001 13.25 12C13.25 12 13.25 12 13.25 12C13.25 12 13.25 12 13.25 12C13.25 12 13.25 12 13.25 12C13.25 12 13.25 12 13.25 12C13.25 12 13.25 12 13.25 12C13.25 12 13.25 12 13.25 12C13.25 12 13.25 12 13.25 12C13.25 12 13.25 12 13.25 12C13.25 12 13.25 12 13.25 12C13.25 12 13.25 12 13.25 12H12ZM13.25 12V7H10.75V12H13.25Z" fill="#15B788"/>
</svg>
