<svg width="24" height="24" viewBox="0 0 24 24" fill="none" xmlns="http://www.w3.org/2000/svg">
<path fill-rule="evenodd" clip-rule="evenodd" d="M12.0001 22.5C13.6104 22.5 16.3638 20.4 16.3638 12C16.3638 3.6 13.6104 1.5 12.0001 1.5C10.3899 1.5 7.63647 3.74151 7.63647 12C7.63647 20.2585 10.3899 22.5 12.0001 22.5Z" stroke="#15B788" stroke-width="1.5" stroke-linecap="round" stroke-linejoin="round"/>
<path fill-rule="evenodd" clip-rule="evenodd" d="M2.55258 17.5C3.35773 18.9062 6.62393 20.2105 14.182 15.8105C21.74 11.4105 22.2528 7.90618 21.4477 6.50003C20.6425 5.09388 17.249 3.86364 9.81833 8.18953C2.38761 12.5154 1.74745 16.0939 2.55258 17.5Z" stroke="#15B788" stroke-width="1.5" stroke-linecap="round" stroke-linejoin="round"/>
<path fill-rule="evenodd" clip-rule="evenodd" d="M2.55253 6.50003C1.7474 7.90618 2.26023 11.4105 9.81829 15.8105C17.3763 20.2105 20.6425 18.9062 21.4476 17.5C22.2528 16.0939 21.6126 12.5154 14.1819 8.18953C6.75119 3.86364 3.35769 5.09388 2.55253 6.50003Z" stroke="#15B788" stroke-width="1.5" stroke-linecap="round" stroke-linejoin="round"/>
</svg>
