<svg width="10" height="416" viewBox="0 0 10 416" fill="none" xmlns="http://www.w3.org/2000/svg">
<rect x="4" y="1.95764" width="2" height="414.042" rx="1" fill="#1395BA"/>
<path d="M9.5 207.021C9.5 209.168 7.71928 210.926 5.5 210.926C3.28072 210.926 1.5 209.168 1.5 207.021C1.5 204.875 3.28072 203.116 5.5 203.116C7.71928 203.116 9.5 204.875 9.5 207.021Z" fill="#1395BA" stroke="white"/>
<path d="M8.5 4.40471C8.5 6.55118 6.71928 8.30941 4.5 8.30941C2.28072 8.30941 0.5 6.55118 0.5 4.40471C0.5 2.25823 2.28072 0.5 4.5 0.5C6.71928 0.5 8.5 2.25823 8.5 4.40471Z" fill="#1395BA" stroke="white"/>
<path d="M8.5 100.329C8.5 102.476 6.71928 104.234 4.5 104.234C2.28072 104.234 0.5 102.476 0.5 100.329C0.5 98.1829 2.28072 96.4247 4.5 96.4247C6.71928 96.4247 8.5 98.1829 8.5 100.329Z" fill="#1395BA" stroke="white"/>
<path d="M8.5 315.671C8.5 317.817 6.71928 319.575 4.5 319.575C2.28072 319.575 0.5 317.817 0.5 315.671C0.5 313.524 2.28072 311.766 4.5 311.766C6.71928 311.766 8.5 313.524 8.5 315.671Z" fill="#1395BA" stroke="white"/>
<path d="M8.5 411.595C8.5 413.742 6.71928 415.5 4.5 415.5C2.28072 415.5 0.5 413.742 0.5 411.595C0.5 409.449 2.28072 407.691 4.5 407.691C6.71928 407.691 8.5 409.449 8.5 411.595Z" fill="#1395BA" stroke="white"/>
</svg>
