<svg width="24" height="24" viewBox="0 0 24 24" fill="none" xmlns="http://www.w3.org/2000/svg">
<path d="M12.16 10.87C12.06 10.86 11.94 10.86 11.83 10.87C9.45005 10.79 7.56005 8.83999 7.56005 6.43999C7.56005 3.98999 9.54005 2 12 2C14.45 2 16.44 3.98999 16.44 6.43999C16.43 8.83999 14.54 10.79 12.16 10.87Z" fill="#15B788" stroke="white" stroke-width="1.5" stroke-linecap="round" stroke-linejoin="round"/>
<path d="M7.15996 14.56C4.73996 16.18 4.73996 18.82 7.15996 20.43C9.90996 22.27 14.42 22.27 17.1699 20.43C19.5899 18.81 19.5899 16.17 17.1699 14.56C14.43 12.73 9.91996 12.73 7.15996 14.56Z" fill="#15B788" stroke="#15B788" stroke-width="1.5" stroke-linecap="round" stroke-linejoin="round"/>
</svg>
